<mxfile host="app.diagrams.net" modified="2022-01-10T02:59:36.966Z" agent="5.0 (Macintosh; Intel Mac OS X 10_15_7) AppleWebKit/537.36 (KHTML, like Gecko) Chrome/96.0.4664.110 Safari/537.36" etag="I6fYIarFqQ6ptLfcIFqe" version="16.1.0" type="github">
  <diagram id="3oQYGou_k9GGk1rbj2p4" name="第 1 页">
    <mxGraphModel dx="894" dy="646" grid="1" gridSize="10" guides="1" tooltips="1" connect="1" arrows="1" fold="1" page="1" pageScale="1" pageWidth="827" pageHeight="1169" math="0" shadow="0">
      <root>
        <mxCell id="0" />
        <mxCell id="1" parent="0" />
        <mxCell id="4Gw8yFwhykISkODmuIje-5" style="edgeStyle=orthogonalEdgeStyle;rounded=0;orthogonalLoop=1;jettySize=auto;html=1;exitX=0.5;exitY=1;exitDx=0;exitDy=0;entryX=0.5;entryY=0;entryDx=0;entryDy=0;" edge="1" parent="1" source="4Gw8yFwhykISkODmuIje-1" target="4Gw8yFwhykISkODmuIje-2">
          <mxGeometry relative="1" as="geometry" />
        </mxCell>
        <mxCell id="4Gw8yFwhykISkODmuIje-1" value="司机/乘客发单" style="rounded=1;whiteSpace=wrap;html=1;" vertex="1" parent="1">
          <mxGeometry x="230" y="30" width="120" height="60" as="geometry" />
        </mxCell>
        <mxCell id="4Gw8yFwhykISkODmuIje-6" style="edgeStyle=orthogonalEdgeStyle;rounded=0;orthogonalLoop=1;jettySize=auto;html=1;exitX=0.5;exitY=1;exitDx=0;exitDy=0;" edge="1" parent="1" source="4Gw8yFwhykISkODmuIje-2" target="4Gw8yFwhykISkODmuIje-3">
          <mxGeometry relative="1" as="geometry" />
        </mxCell>
        <mxCell id="4Gw8yFwhykISkODmuIje-22" style="edgeStyle=orthogonalEdgeStyle;rounded=0;orthogonalLoop=1;jettySize=auto;html=1;exitX=1;exitY=0.5;exitDx=0;exitDy=0;entryX=0.5;entryY=0;entryDx=0;entryDy=0;" edge="1" parent="1" source="4Gw8yFwhykISkODmuIje-2" target="4Gw8yFwhykISkODmuIje-18">
          <mxGeometry relative="1" as="geometry" />
        </mxCell>
        <mxCell id="4Gw8yFwhykISkODmuIje-2" value="调用策略" style="rounded=1;whiteSpace=wrap;html=1;" vertex="1" parent="1">
          <mxGeometry x="230" y="150" width="120" height="60" as="geometry" />
        </mxCell>
        <mxCell id="4Gw8yFwhykISkODmuIje-7" style="edgeStyle=orthogonalEdgeStyle;rounded=0;orthogonalLoop=1;jettySize=auto;html=1;exitX=0.5;exitY=1;exitDx=0;exitDy=0;entryX=0.5;entryY=0;entryDx=0;entryDy=0;" edge="1" parent="1" source="4Gw8yFwhykISkODmuIje-3" target="4Gw8yFwhykISkODmuIje-4">
          <mxGeometry relative="1" as="geometry" />
        </mxCell>
        <mxCell id="4Gw8yFwhykISkODmuIje-3" value="doFIiter(琛哥加入的GeoFencenCheckHandler)" style="rounded=1;whiteSpace=wrap;html=1;" vertex="1" parent="1">
          <mxGeometry x="215" y="270" width="150" height="60" as="geometry" />
        </mxCell>
        <mxCell id="4Gw8yFwhykISkODmuIje-13" style="edgeStyle=orthogonalEdgeStyle;rounded=0;orthogonalLoop=1;jettySize=auto;html=1;exitX=0.5;exitY=1;exitDx=0;exitDy=0;entryX=0.5;entryY=0;entryDx=0;entryDy=0;" edge="1" parent="1" source="4Gw8yFwhykISkODmuIje-4" target="4Gw8yFwhykISkODmuIje-8">
          <mxGeometry relative="1" as="geometry" />
        </mxCell>
        <mxCell id="4Gw8yFwhykISkODmuIje-4" value="createPaxOrder&lt;br&gt;createDriverOrder" style="rounded=1;whiteSpace=wrap;html=1;" vertex="1" parent="1">
          <mxGeometry x="230" y="390" width="120" height="60" as="geometry" />
        </mxCell>
        <mxCell id="4Gw8yFwhykISkODmuIje-15" style="edgeStyle=orthogonalEdgeStyle;rounded=0;orthogonalLoop=1;jettySize=auto;html=1;exitX=0.5;exitY=1;exitDx=0;exitDy=0;" edge="1" parent="1" source="4Gw8yFwhykISkODmuIje-8" target="4Gw8yFwhykISkODmuIje-9">
          <mxGeometry relative="1" as="geometry" />
        </mxCell>
        <mxCell id="4Gw8yFwhykISkODmuIje-8" value="save&lt;br&gt;onInsert" style="rounded=1;whiteSpace=wrap;html=1;" vertex="1" parent="1">
          <mxGeometry x="230" y="510" width="120" height="60" as="geometry" />
        </mxCell>
        <mxCell id="4Gw8yFwhykISkODmuIje-16" style="edgeStyle=orthogonalEdgeStyle;rounded=0;orthogonalLoop=1;jettySize=auto;html=1;exitX=0.5;exitY=1;exitDx=0;exitDy=0;" edge="1" parent="1" source="4Gw8yFwhykISkODmuIje-9" target="4Gw8yFwhykISkODmuIje-11">
          <mxGeometry relative="1" as="geometry" />
        </mxCell>
        <mxCell id="4Gw8yFwhykISkODmuIje-9" value="publishPaxOrder,&lt;br&gt;publishDriverOrder" style="rounded=1;whiteSpace=wrap;html=1;" vertex="1" parent="1">
          <mxGeometry x="233" y="630" width="114" height="60" as="geometry" />
        </mxCell>
        <mxCell id="4Gw8yFwhykISkODmuIje-17" style="edgeStyle=orthogonalEdgeStyle;rounded=0;orthogonalLoop=1;jettySize=auto;html=1;exitX=0.5;exitY=1;exitDx=0;exitDy=0;entryX=0.5;entryY=0;entryDx=0;entryDy=0;" edge="1" parent="1" source="4Gw8yFwhykISkODmuIje-11" target="4Gw8yFwhykISkODmuIje-12">
          <mxGeometry relative="1" as="geometry" />
        </mxCell>
        <mxCell id="4Gw8yFwhykISkODmuIje-11" value="调用jp，返回行程订单，司机/乘客订单" style="rounded=1;whiteSpace=wrap;html=1;" vertex="1" parent="1">
          <mxGeometry x="230" y="750" width="120" height="60" as="geometry" />
        </mxCell>
        <mxCell id="4Gw8yFwhykISkODmuIje-12" value="韬哥加入的东莞，绍兴临时过滤代码" style="rounded=1;whiteSpace=wrap;html=1;" vertex="1" parent="1">
          <mxGeometry x="230" y="870" width="120" height="60" as="geometry" />
        </mxCell>
        <mxCell id="4Gw8yFwhykISkODmuIje-23" style="edgeStyle=orthogonalEdgeStyle;rounded=0;orthogonalLoop=1;jettySize=auto;html=1;exitX=0.5;exitY=1;exitDx=0;exitDy=0;entryX=0.5;entryY=0;entryDx=0;entryDy=0;" edge="1" parent="1" source="4Gw8yFwhykISkODmuIje-18" target="4Gw8yFwhykISkODmuIje-19">
          <mxGeometry relative="1" as="geometry" />
        </mxCell>
        <mxCell id="4Gw8yFwhykISkODmuIje-18" value="&lt;span&gt;createPaxOrder&lt;/span&gt;&lt;br&gt;&lt;span&gt;createDriverOrder&lt;/span&gt;" style="rounded=1;whiteSpace=wrap;html=1;" vertex="1" parent="1">
          <mxGeometry x="460" y="270" width="120" height="60" as="geometry" />
        </mxCell>
        <mxCell id="4Gw8yFwhykISkODmuIje-24" style="edgeStyle=orthogonalEdgeStyle;rounded=0;orthogonalLoop=1;jettySize=auto;html=1;exitX=0.5;exitY=1;exitDx=0;exitDy=0;" edge="1" parent="1" source="4Gw8yFwhykISkODmuIje-19" target="4Gw8yFwhykISkODmuIje-20">
          <mxGeometry relative="1" as="geometry" />
        </mxCell>
        <mxCell id="4Gw8yFwhykISkODmuIje-19" value="save&lt;br&gt;onInsert" style="rounded=1;whiteSpace=wrap;html=1;" vertex="1" parent="1">
          <mxGeometry x="460" y="390" width="120" height="60" as="geometry" />
        </mxCell>
        <mxCell id="4Gw8yFwhykISkODmuIje-33" style="edgeStyle=orthogonalEdgeStyle;rounded=0;orthogonalLoop=1;jettySize=auto;html=1;exitX=0.5;exitY=1;exitDx=0;exitDy=0;entryX=0.5;entryY=0;entryDx=0;entryDy=0;" edge="1" parent="1" source="4Gw8yFwhykISkODmuIje-20" target="4Gw8yFwhykISkODmuIje-21">
          <mxGeometry relative="1" as="geometry" />
        </mxCell>
        <mxCell id="4Gw8yFwhykISkODmuIje-20" value="&lt;span&gt;publishPaxOrder,&lt;/span&gt;&lt;br&gt;&lt;span&gt;publishDriverOrder&lt;/span&gt;" style="rounded=1;whiteSpace=wrap;html=1;" vertex="1" parent="1">
          <mxGeometry x="460" y="510" width="120" height="60" as="geometry" />
        </mxCell>
        <mxCell id="4Gw8yFwhykISkODmuIje-21" value="&lt;span&gt;调用jp，返回行程订单，司机/乘客订单&lt;br&gt;并返回错误码&lt;br&gt;&lt;/span&gt;" style="rounded=1;whiteSpace=wrap;html=1;" vertex="1" parent="1">
          <mxGeometry x="460" y="630" width="120" height="60" as="geometry" />
        </mxCell>
      </root>
    </mxGraphModel>
  </diagram>
</mxfile>
